<?xml version="1.0" encoding="UTF-8"?>
<svg version="1.1" xmlns="http://www.w3.org/2000/svg" width="192" height="90">
<path d="M0 0 C3.54600459 2.15312123 6.93093789 4.46525777 10.29296875 6.89453125 C11.40901489 7.69141357 11.40901489 7.69141357 12.54760742 8.50439453 C18.60481079 12.83685856 24.63174941 17.21184707 30.66088867 21.58325195 C36.26910947 25.64101771 41.92664276 29.62382929 47.60546875 33.58203125 C54.78545377 38.58655697 61.91745034 43.64990942 68.98779297 48.80834961 C72.78826641 51.57522682 76.61534063 54.28558547 80.5078125 56.921875 C81.29969971 57.46312012 82.09158691 58.00436523 82.9074707 58.56201172 C84.42308364 59.5945081 85.94610778 60.61623247 87.47729492 61.62548828 C88.15123291 62.08681152 88.8251709 62.54813477 89.51953125 63.0234375 C90.11717285 63.42248291 90.71481445 63.82152832 91.33056641 64.23266602 C92.60546875 65.58203125 92.60546875 65.58203125 92.60546875 69.58203125 C90.60546875 72.33203125 90.60546875 72.33203125 88.60546875 74.58203125 C84.04294587 72.40255504 80.01507028 69.56388908 75.85546875 66.70703125 C75.01072998 66.12840332 74.16599121 65.54977539 73.2956543 64.95361328 C67.23014105 60.77022578 61.31498389 56.42164657 55.45166016 51.96118164 C50.32255974 48.0750541 45.06801816 44.41115871 39.74536133 40.79638672 C34.63175953 37.31433553 29.60970194 33.71913685 24.60546875 30.08203125 C23.10185072 28.99699631 21.59794554 27.91235919 20.09375 26.828125 C17.8318657 25.19730396 15.57598796 23.5602422 13.33349609 21.90283203 C11.16470339 20.30038493 8.98076727 18.72088376 6.79296875 17.14453125 C6.14134766 16.65339844 5.48972656 16.16226562 4.81835938 15.65625 C1.31077774 13.10059589 1.31077774 13.10059589 -2.86328125 12.96484375 C-6.34097518 15.18670376 -9.73674619 17.47735764 -13.08203125 19.89453125 C-13.82606201 20.42578613 -14.57009277 20.95704102 -15.33666992 21.50439453 C-21.39387329 25.83685856 -27.42081191 30.21184707 -33.44995117 34.58325195 C-39.05817334 38.6410187 -44.71575121 42.62376157 -50.39453125 46.58203125 C-59.80546754 53.14304849 -69.11639185 59.83492218 -78.39453125 66.58203125 C-79.58329924 67.44535945 -80.77209891 68.30864403 -81.9609375 69.171875 C-84.4401128 70.97347238 -86.91816549 72.77657516 -89.39453125 74.58203125 C-92.72089007 73.05630469 -94.35016127 71.64858621 -96.39453125 68.58203125 C-95.00746053 65.26655064 -93.59862098 63.72781327 -90.60546875 61.76953125 C-89.8369458 61.2576123 -89.06842285 60.74569336 -88.27661133 60.21826172 C-87.4492749 59.67830566 -86.62193848 59.13834961 -85.76953125 58.58203125 C-79.44932163 54.36537729 -73.24532175 50.06906724 -67.20703125 45.45703125 C-61.42753762 41.05781162 -55.53936392 36.87594335 -49.53222656 32.79418945 C-44.44449765 29.32837509 -39.43864475 25.7609962 -34.45703125 22.14453125 C-28.37842438 17.73270287 -22.28038946 13.35147533 -16.14453125 9.01953125 C-15.45367432 8.53105713 -14.76281738 8.04258301 -14.05102539 7.53930664 C-12.76310568 6.6316314 -11.47092349 5.72996313 -10.17382812 4.83544922 C-9.01178442 4.01685257 -7.87061719 3.16755216 -6.75585938 2.28564453 C-3.05663666 -0.53354017 -3.05663666 -0.53354017 0 0 Z " fill="#000000" transform="translate(97.39453125,8.41796875)"/>
</svg>
